<svg xmlns="http://www.w3.org/2000/svg" version="1.1" xmlns:xlink="http://www.w3.org/1999/xlink" xmlns:svgjs="http://svgjs.dev/svgjs" width="1500" height="1500" viewBox="0 0 1500 1500"><rect width="1500" height="1500" fill="#000000"></rect><g transform="matrix(0.4291845493562232,0,0,0.4291845493562232,427.4135705896259,250.40485829959516)"><svg viewBox="0 0 159 247" data-background-color="#000000" preserveAspectRatio="xMidYMid meet" height="2330" width="1500" xmlns="http://www.w3.org/2000/svg" xmlns:xlink="http://www.w3.org/1999/xlink"><g id="tight-bounds" transform="matrix(1,0,0,1,0.1723963357741809,-0.09999999999999432)"><svg viewBox="0 0 158.6552073284516 247.2" height="247.2" width="158.6552073284516"><g><svg></svg></g><g><svg viewBox="0 0 158.6552073284516 247.2" height="247.2" width="158.6552073284516"><g transform="matrix(1,0,0,1,0,47.215199999999996)"><svg viewBox="0 0 158.6552073284516 152.7696" height="152.7696" width="158.6552073284516"><g><svg viewBox="0 0 244.43135999999998 235.36372819677078" height="152.7696" width="158.6552073284516"><g transform="matrix(1,0,0,1,0,169.9603257477912)"><svg viewBox="0 0 244.43135999999998 65.40340244897959" height="65.40340244897959" width="244.43135999999998"><g id="textblocktransform"><svg viewBox="0 0 244.43135999999998 65.40340244897959" height="65.40340244897959" width="244.43135999999998" id="textblock"><g><svg viewBox="0 0 244.43135999999998 65.40340244897959" height="65.40340244897959" width="244.43135999999998"><g transform="matrix(1,0,0,1,0,0)"><svg width="244.43135999999998" viewBox="1.65 -35.05 132.29 35.4" height="65.40340244897959" data-palette-color="#89939e"><path d="M8.95 0.2L8.95 0.2Q6.05 0.2 4.35-1.33 2.65-2.85 2.65-6.05L2.65-6.05Q2.65-7.9 3.13-10 3.6-12.1 4.05-13.75L4.05-13.75Q4.5-15.35 4.78-16.55 5.05-17.75 5.05-18.4L5.05-18.4Q5.05-19.2 4.7-19.55 4.35-19.9 3.85-19.9L3.85-19.9Q2.65-19.9 1.85-18.75L1.85-18.75 1.65-18.95Q1.7-20.65 2.75-22.08 3.8-23.5 5.45-24.35 7.1-25.2 8.8-25.2L8.8-25.2Q10.7-25.2 12.05-24.08 13.4-22.95 13.3-20.55L13.3-20.55Q13.25-19.5 12.93-17.9 12.6-16.3 12.05-14.1L12.05-14.1Q11.7-12.7 11.33-10.93 10.95-9.15 10.95-7.7L10.95-7.7Q10.95-6.6 11.3-5.95 11.65-5.3 12.45-5.3L12.45-5.3Q13.5-5.3 14.78-6.48 16.05-7.65 17-10.33 17.95-13 18.1-17.45L18.1-17.45Q18.25-20.85 17.65-22.4L17.65-22.4 17.65-22.65Q18.1-23.35 19.03-24 19.95-24.65 21.1-25.08 22.25-25.5 23.25-25.5L23.25-25.5Q24.85-25.5 25.98-23.95 27.1-22.4 26.95-18.55L26.95-18.55Q26.85-14.85 25.63-11.85 24.4-8.85 22.45-6.6 20.5-4.35 18.18-2.85 15.85-1.35 13.45-0.58 11.05 0.2 8.95 0.2ZM40.15 0.35L40.15 0.35Q36.4 0.35 33.95-1.15 31.5-2.65 30.32-5.13 29.15-7.6 29.15-10.4L29.15-10.4Q29.15-13.05 30.12-15.7 31.1-18.35 32.97-20.53 34.85-22.7 37.55-24.03 40.25-25.35 43.75-25.35L43.75-25.35Q47.5-25.35 49.92-23.83 52.35-22.3 53.52-19.8 54.7-17.3 54.7-14.45L54.7-14.45Q54.7-11.85 53.75-9.22 52.8-6.6 50.92-4.42 49.05-2.25 46.35-0.95 43.65 0.35 40.15 0.35ZM41.5-3.9L41.5-3.9Q42.85-3.9 43.75-5.3 44.65-6.7 45.1-8.88 45.55-11.05 45.55-13.3L45.55-13.3Q45.55-15.3 45.17-17.07 44.8-18.85 44.05-19.98 43.3-21.1 42.1-21.1L42.1-21.1Q40.8-21.1 39.87-19.7 38.95-18.3 38.5-16.15 38.05-14 38.05-11.7L38.05-11.7Q38.05-9.7 38.42-7.93 38.8-6.15 39.55-5.03 40.3-3.9 41.5-3.9ZM67.25 0.35L67.25 0.35Q63.95 0.35 61.67-1.15 59.39-2.65 58.24-5.08 57.09-7.5 57.09-10.3L57.09-10.3Q57.09-12.95 58.12-15.6 59.14-18.25 61.14-20.48 63.14-22.7 66.02-24.03 68.89-25.35 72.64-25.35L72.64-25.35Q76.34-25.35 78.14-23.88 79.94-22.4 79.94-20.65L79.94-20.65Q79.94-18.8 78.09-17.25 76.25-15.7 72.69-15.7L72.69-15.7Q72.89-16.45 73.02-17.23 73.14-18 73.14-18.7L73.14-18.7Q73.14-19.75 72.69-20.48 72.25-21.2 71.09-21.2L71.09-21.2Q70.05-21.2 68.87-20.25 67.69-19.3 66.87-17.45 66.05-15.6 66.05-12.9L66.05-12.9Q66.05-10.25 66.92-8.6 67.8-6.95 69.19-6.23 70.59-5.5 72.14-5.5L72.14-5.5Q74.19-5.5 76.09-6.58 78-7.65 78.84-9.55L78.84-9.55 79.34-9.35Q79.34-6.75 78.17-4.93 77-3.1 75.14-1.93 73.3-0.75 71.19-0.2 69.09 0.35 67.25 0.35ZM100.24 0.25L100.24 0.25Q98.49 0.25 97.19-0.9 95.89-2.05 95.89-4.65L95.89-4.65Q95.89-4.9 95.89-5.15 95.89-5.4 95.94-5.65L95.94-5.65Q94.44-2.65 92.57-1.23 90.69 0.2 88.79 0.2L88.79 0.2Q87.04 0.2 85.49-1.03 83.94-2.25 82.99-4.65 82.04-7.05 82.04-10.45L82.04-10.45Q82.04-13.95 83.02-16.7 83.99-19.45 85.59-21.35 87.19-23.25 89.09-24.23 90.99-25.2 92.79-25.2L92.79-25.2Q94.79-25.2 96.39-23.98 97.99-22.75 98.59-20.1L98.59-20.1Q98.74-20.95 98.82-21.65 98.89-22.35 98.89-22.6L98.89-22.6Q98.94-23.95 100.27-24.6 101.59-25.25 103.19-25.25L103.19-25.25Q104.59-25.25 105.84-24.7 107.09-24.15 107.54-22.85L107.54-22.85 107.64-22.55Q107.04-21.2 106.44-19.3 105.84-17.4 105.34-15.33 104.84-13.25 104.54-11.28 104.24-9.3 104.24-7.8L104.24-7.8Q104.24-6.15 104.59-5.53 104.94-4.9 105.44-4.9L105.44-4.9Q106.29-4.9 106.99-6.1L106.99-6.1 107.39-5.9Q107.39-4.2 106.29-2.8 105.19-1.4 103.54-0.58 101.89 0.25 100.24 0.25ZM92.09-6.1L92.09-6.1Q93.39-6.1 94.97-8.43 96.54-10.75 97.69-15.1L97.69-15.1Q97.79-15.55 97.89-15.98 97.99-16.4 98.04-16.8L98.04-16.8Q97.24-18.65 96.37-19.43 95.49-20.2 94.64-20.2L94.64-20.2Q93.39-20.2 92.32-18.88 91.24-17.55 90.57-15.55 89.89-13.55 89.89-11.55L89.89-11.55Q89.89-8.8 90.52-7.45 91.14-6.1 92.09-6.1ZM123.39 0.2L123.39 0.2Q121.39 0.2 119.74-0.68 118.09-1.55 117.04-3.25L117.04-3.25Q116.99-2.3 116.34-1.5 115.69-0.7 113.89-0.7L113.89-0.7Q111.89-0.7 110.94-1.8 109.99-2.9 109.99-4.7L109.99-4.7Q109.99-5.8 110.29-7.88 110.59-9.95 111.02-12.55 111.44-15.15 111.87-17.95 112.29-20.75 112.59-23.4 112.89-26.05 112.89-28.15L112.89-28.15Q112.89-29.55 112.74-30.6 112.59-31.65 112.19-32.25L112.19-32.25 112.19-32.55Q113.34-33.8 114.59-34.43 115.84-35.05 116.99-35.05L116.99-35.05Q118.69-35.05 119.89-33.7 121.09-32.35 121.09-29.4L121.09-29.4Q121.09-27.95 120.79-25.33 120.49-22.7 120.04-20.1L120.04-20.1Q121.84-22.65 123.87-24 125.89-25.35 127.79-25.35L127.79-25.35Q130.34-25.35 132.14-22.93 133.94-20.5 133.94-15.6L133.94-15.6Q133.94-12.7 133.27-9.88 132.59-7.05 131.24-4.78 129.89-2.5 127.92-1.15 125.94 0.2 123.39 0.2ZM120.89-4.85L120.89-4.85Q122.49-4.85 123.62-6.25 124.74-7.65 125.32-9.83 125.89-12 125.89-14.3L125.89-14.3Q125.89-15.8 125.64-17.18 125.39-18.55 124.89-19.43 124.39-20.3 123.59-20.3L123.59-20.3Q122.19-20.3 120.42-17.03 118.64-13.75 117.64-7.75L117.64-7.75Q118.54-4.85 120.89-4.85Z" opacity="1" transform="matrix(1,0,0,1,0,0)" fill="#89939e" class="wordmark-text-0" data-fill-palette-color="primary" id="text-0"></path></svg></g></svg></g></svg></g></svg></g><g transform="matrix(1,0,0,1,52.67569076264971,0)"><svg viewBox="0 0 139.07997847470057 139.07997847470057" height="139.07997847470057" width="139.07997847470057"><g><svg></svg></g><g id="icon-0"><svg viewBox="0 0 139.07997847470057 139.07997847470057" height="139.07997847470057" width="139.07997847470057"><g><path d="M0 69.54c0-38.406 31.134-69.54 69.54-69.54 38.406 0 69.54 31.134 69.54 69.54 0 38.406-31.134 69.54-69.54 69.54-38.406 0-69.54-31.134-69.54-69.54zM69.54 133.182c35.148 0 63.642-28.493 63.642-63.642 0-35.148-28.493-63.642-63.642-63.642-35.148 0-63.642 28.493-63.642 63.642 0 35.148 28.493 63.642 63.642 63.642z" data-fill-palette-color="tertiary" fill="#89939e" stroke="transparent"></path></g><g transform="matrix(1,0,0,1,30.5921676401711,30.5921676401711)"><svg viewBox="0 0 77.89564319435837 77.89564319435837" height="77.89564319435837" width="77.89564319435837"><g><svg xmlns="http://www.w3.org/2000/svg" xmlns:xlink="http://www.w3.org/1999/xlink" version="1.1" x="0" y="0" viewBox="10 10 80 80" style="enable-background:new 0 0 100 100;" xml:space="preserve" height="77.89564319435837" width="77.89564319435837" class="icon-cg-0" data-fill-palette-color="accent" id="cg-0"><path d="M41.009 25.345c-0.553 0-1 0.447-1 1v16.511c0 0.553 0.447 1 1 1s1-0.447 1-1V26.345C42.009 25.792 41.562 25.345 41.009 25.345z" fill="#dedede" data-fill-palette-color="accent"></path><path d="M41.009 75.268c-0.553 0-1 0.447-1 1v4.157c0 0.553 0.447 1 1 1s1-0.447 1-1v-4.157C42.009 75.715 41.562 75.268 41.009 75.268z" fill="#dedede" data-fill-palette-color="accent"></path><path d="M53.937 72.249c0.553 0 1-0.447 1-1V54.738c0-0.553-0.447-1-1-1s-1 0.447-1 1v16.511C52.937 71.802 53.384 72.249 53.937 72.249z" fill="#dedede" data-fill-palette-color="accent"></path><path d="M53.937 81.425c0.553 0 1-0.447 1-1v-4.157c0-0.553-0.447-1-1-1s-1 0.447-1 1v4.157C52.937 80.978 53.384 81.425 53.937 81.425z" fill="#dedede" data-fill-palette-color="accent"></path><path d="M22.772 40.979c-3.854 0-6.988 4.047-6.988 9.021s3.135 9.021 6.988 9.021S29.761 54.974 29.761 50 26.626 40.979 22.772 40.979zM22.772 57.021c-2.751 0-4.988-3.149-4.988-7.021s2.237-7.021 4.988-7.021S27.761 46.129 27.761 50 25.523 57.021 22.772 57.021z" fill="#dedede" data-fill-palette-color="accent"></path><path d="M89 10H74.711 60.422c-0.553 0-1 0.447-1 1v0.508H47.473c-0.553 0-1 0.447-1 1v2.486H35.545V11c0-0.553-0.447-1-1-1H11c-0.553 0-1 0.447-1 1v78c0 0.553 0.447 1 1 1h23.545 12.928 12.928c0.004 0 0.007-0.002 0.011-0.002C60.415 89.998 60.418 90 60.422 90h14.289H89c0.553 0 1-0.447 1-1V11C90 10.447 89.553 10 89 10zM61.422 37.072h12.289v25.856H61.422V37.072zM75.711 37.072H88v25.856H75.711V37.072zM88 35.072H75.711v-7.089H88V35.072zM73.711 35.072H61.422v-7.089h12.289V35.072zM61.422 64.928h12.289v7.089H61.422V64.928zM75.711 64.928H88v7.089H75.711V64.928zM88 25.983H75.711V12H88V25.983zM73.711 12v13.983H61.422V12H73.711zM12 37.072h21.545v25.856H12V37.072zM33.545 35.072H12v-7.089h21.545V35.072zM12 64.928h21.545v7.089H12V64.928zM33.545 12v3.994 9.989H12V12H33.545zM12 74.017h21.545V88H12V74.017zM35.545 16.994h10.928V88H35.545V16.994zM59.401 88H48.473V15.994v-2.486h10.928V88zM61.422 74.017h12.289V88H61.422V74.017zM75.711 88V74.017H88V88H75.711z" fill="#dedede" data-fill-palette-color="accent"></path></svg></g></svg></g></svg></g></svg></g><g></g></svg></g></svg></g><path d="M0 41.215L0 1 158.655 1 158.655 41.215 154.827 41.215 154.827 4.828 3.828 4.828 3.828 41.215 0 41.215M0 205.985L0 246.2 158.655 246.2 158.655 205.985 154.827 205.985 154.827 242.372 3.828 242.372 3.828 205.985 0 205.985" fill="#89939e" stroke="transparent" data-fill-palette-color="tertiary"></path></svg></g><defs></defs></svg><rect width="158.6552073284516" height="247.2" fill="none" stroke="none" visibility="hidden"></rect></g></svg></g></svg>